<svg width="1280" height="640" viewBox="0 0 1280 640" fill="none" xmlns="http://www.w3.org/2000/svg">
  <rect width="1280" height="640" fill="#0D1B2A"/>
  <rect x="72" y="72" width="1136" height="496" rx="28" fill="url(#panel)" stroke="#6FFFE9" stroke-opacity="0.28"/>
  <circle cx="1062" cy="164" r="112" fill="#6FFFE9" fill-opacity="0.14"/>
  <circle cx="1130" cy="124" r="52" fill="#E0FBFC" fill-opacity="0.12"/>
  <path d="M120 438C188 382 256 354 324 354C430 354 472 426 566 426C638 426 704 386 760 326" stroke="#6FFFE9" stroke-width="8" stroke-linecap="round"/>
  <path d="M760 326L734 326" stroke="#6FFFE9" stroke-width="8" stroke-linecap="round"/>
  <path d="M760 326L760 352" stroke="#6FFFE9" stroke-width="8" stroke-linecap="round"/>
  <rect x="120" y="144" width="142" height="142" rx="22" fill="#6FFFE9" fill-opacity="0.12" stroke="#6FFFE9"/>
  <path d="M158 215H224" stroke="#E0FBFC" stroke-width="12" stroke-linecap="round"/>
  <path d="M191 182V248" stroke="#E0FBFC" stroke-width="12" stroke-linecap="round"/>
  <text x="304" y="208" fill="#E0FBFC" font-family="Segoe UI, Arial, sans-serif" font-size="78" font-weight="700">MicroResult</text>
  <text x="304" y="276" fill="#BFEAE7" font-family="Segoe UI, Arial, sans-serif" font-size="30" font-weight="500">Tiny Result&lt;T&gt; for clean, exception-free .NET flows</text>
  <text x="304" y="346" fill="#CDEDF6" font-family="Consolas, 'Courier New', monospace" font-size="28">return user;</text>
  <text x="304" y="392" fill="#CDEDF6" font-family="Consolas, 'Courier New', monospace" font-size="28">return new Error("NotFound", "User not found");</text>
  <text x="120" y="518" fill="#BFEAE7" font-family="Segoe UI, Arial, sans-serif" font-size="24">Zero dependency  •  readonly struct  •  AOT-friendly  •  Map / Bind / Match</text>
  <defs>
    <linearGradient id="panel" x1="120" y1="120" x2="1160" y2="560" gradientUnits="userSpaceOnUse">
      <stop stop-color="#10253A"/>
      <stop offset="1" stop-color="#16324F"/>
    </linearGradient>
  </defs>
</svg>